<?xml version="1.0" encoding="utf-8"?>
<!-- Generator: Adobe Illustrator 24.2.1, SVG Export Plug-In . SVG Version: 6.00 Build 0)  -->
<svg version="1.1" id="Layer_1" xmlns="http://www.w3.org/2000/svg" xmlns:xlink="http://www.w3.org/1999/xlink" x="0px" y="0px"
	 viewBox="0 0 640 480" style="enable-background:new 0 0 640 480;" xml:space="preserve">
<style type="text/css">
	.st0{fill:none;stroke:#F15A24;stroke-width:44;stroke-miterlimit:10;stroke-dasharray:20.0853,20.0853;}
	.st1{fill:#F7931E;}
	.st2{fill:#F15A24;}
</style>
<g>
	<circle class="st0" cx="320.03" cy="239.52" r="210.97"/>
</g>
<g>
	<circle class="st1" cx="320.03" cy="239.52" r="184.98"/>
	<path class="st2" d="M320.03,60.04c47.94,0,93.01,18.67,126.91,52.57c33.9,33.9,52.57,78.97,52.57,126.91
		s-18.67,93.01-52.57,126.91c-33.9,33.9-78.97,52.57-126.91,52.57s-93.01-18.67-126.91-52.57c-33.9-33.9-52.57-78.97-52.57-126.91
		s18.67-93.01,52.57-126.91C227.02,78.71,272.09,60.04,320.03,60.04 M320.03,49.04c-105.2,0-190.48,85.28-190.48,190.48
		S214.83,430,320.03,430s190.48-85.28,190.48-190.48S425.23,49.04,320.03,49.04L320.03,49.04z"/>
</g>
</svg>
