<?xml version="1.0" encoding="utf-8"?>
<!-- Generator: Adobe Illustrator 24.2.1, SVG Export Plug-In . SVG Version: 6.00 Build 0)  -->
<svg version="1.1" id="Layer_1" xmlns="http://www.w3.org/2000/svg" xmlns:xlink="http://www.w3.org/1999/xlink" x="0px" y="0px"
	 viewBox="0 0 640 480" style="enable-background:new 0 0 640 480;" xml:space="preserve">
<style type="text/css">
	.st0{fill:#F7931E;}
	.st1{fill:#F15A24;}
	.st2{fill:none;stroke:#F15A24;stroke-width:11;stroke-miterlimit:10;stroke-dasharray:12.0599,12.0599;}
</style>
<g>
	<path class="st0" d="M320.03,454.13c-57.33,0-111.22-22.32-151.75-62.86c-40.54-40.54-62.86-94.43-62.86-151.75
		s22.32-111.22,62.86-151.75s94.43-62.86,151.75-62.86s111.22,22.32,151.75,62.86s62.86,94.43,62.86,151.75
		s-22.32,111.22-62.86,151.75S377.35,454.13,320.03,454.13z"/>
	<path class="st1" d="M320.03,30.41c28.23,0,55.62,5.53,81.39,16.43c24.9,10.53,47.26,25.61,66.47,44.82
		c19.21,19.21,34.29,41.57,44.82,66.47c10.9,25.77,16.43,53.16,16.43,81.39s-5.53,55.62-16.43,81.39
		c-10.53,24.9-25.61,47.26-44.82,66.47c-19.21,19.21-41.57,34.29-66.47,44.82c-25.77,10.9-53.16,16.43-81.39,16.43
		c-28.23,0-55.62-5.53-81.39-16.43c-24.9-10.53-47.26-25.61-66.47-44.82c-19.21-19.21-34.29-41.57-44.82-66.47
		c-10.9-25.77-16.43-53.16-16.43-81.39s5.53-55.62,16.43-81.39c10.53-24.9,25.61-47.26,44.82-66.47
		c19.21-19.21,41.57-34.29,66.47-44.82C264.41,35.93,291.79,30.41,320.03,30.41 M320.03,19.41c-121.57,0-220.11,98.55-220.11,220.11
		s98.55,220.11,220.11,220.11s220.11-98.55,220.11-220.11S441.59,19.41,320.03,19.41L320.03,19.41z"/>
</g>
<g>
	<circle class="st2" cx="320.03" cy="239.52" r="226.48"/>
</g>
</svg>
