<?xml version="1.0" encoding="utf-8"?>
<!-- Generator: Adobe Illustrator 24.2.1, SVG Export Plug-In . SVG Version: 6.00 Build 0)  -->
<svg version="1.1" id="Layer_1" xmlns="http://www.w3.org/2000/svg" xmlns:xlink="http://www.w3.org/1999/xlink" x="0px" y="0px"
	 viewBox="0 0 640 480" style="enable-background:new 0 0 640 480;" xml:space="preserve">
<style type="text/css">
	.st0{fill:#F7931E;}
	.st1{fill:#F15A24;}
	.st2{fill:none;stroke:#F15A24;stroke-width:11;stroke-miterlimit:10;stroke-dasharray:12.1256,12.1256;}
	.st3{fill:#B3B3B3;stroke:#808080;stroke-width:8;stroke-miterlimit:10;}
</style>
<g>
	
		<ellipse transform="matrix(0.7071 -0.7071 0.7071 0.7071 -94.0342 194.5041)" class="st0" cx="187.77" cy="210.76" rx="148.29" ry="148.29"/>
	<path class="st1" d="M187.77,67.97c38.14,0,74,14.85,100.97,41.82c26.97,26.97,41.82,62.83,41.82,100.97s-14.85,74-41.82,100.97
		c-26.97,26.97-62.83,41.82-100.97,41.82s-74-14.85-100.97-41.82c-26.97-26.97-41.82-62.83-41.82-100.97s14.85-74,41.82-100.97
		S149.63,67.97,187.77,67.97 M187.77,56.97c-84.94,0-153.79,68.86-153.79,153.79s68.86,153.79,153.79,153.79
		s153.79-68.86,153.79-153.79S272.71,56.97,187.77,56.97L187.77,56.97z"/>
</g>
<g>
	<circle class="st2" cx="187.77" cy="210.76" r="158.24"/>
</g>
<path class="st3" d="M286.07,240.95c10.78-58.7,62.2-103.18,124.01-103.18c62.13,0,113.76,44.92,124.18,104.03
	c3.08-0.36,6.22-0.53,9.39-0.53c44.93,0,81.35,36.41,81.35,81.35c0,44.93-36.41,81.35-81.35,81.35l-378.76,1.27
	c-26.68,0-48.3-21.62-48.3-48.3s21.62-48.3,48.3-48.3c2.17,0,4.31,0.14,6.41,0.43c-0.04-0.86-0.05-1.74-0.05-2.62
	c0-41.92,34.14-75.89,76.26-75.89C261.58,230.55,274.76,234.34,286.07,240.95z"/>
</svg>
