<?xml version="1.0" encoding="utf-8"?>
<!-- Generator: Adobe Illustrator 24.2.1, SVG Export Plug-In . SVG Version: 6.00 Build 0)  -->
<svg version="1.1" id="Layer_1" xmlns="http://www.w3.org/2000/svg" xmlns:xlink="http://www.w3.org/1999/xlink" x="0px" y="0px"
	 viewBox="0 0 640 480" style="enable-background:new 0 0 640 480;" xml:space="preserve">
<style type="text/css">
	.st0{fill:#666666;stroke:#808080;stroke-width:31;stroke-miterlimit:10;}
	.st1{fill:#B3B3B3;stroke:#808080;stroke-width:8;stroke-miterlimit:10;}
</style>
<circle class="st0" cx="197.42" cy="222.45" r="171.86"/>
<path class="st1" d="M245.68,255.61c12.09-65.86,69.8-115.78,139.16-115.78c69.71,0,127.65,50.4,139.34,116.74
	c3.45-0.4,6.97-0.6,10.54-0.6c50.42,0,91.28,40.86,91.28,91.28c0,50.42-40.86,91.28-91.28,91.28l-425.02,1.43
	c-29.94,0-54.2-24.26-54.2-54.2c0-29.94,24.26-54.2,54.2-54.2c2.44,0,4.83,0.16,7.19,0.48c-0.04-0.97-0.06-1.95-0.06-2.94
	c0-47.04,38.31-85.16,85.57-85.16C218.2,243.94,232.99,248.19,245.68,255.61z"/>
</svg>
