<?xml version="1.0" encoding="utf-8"?>
<!-- Generator: Adobe Illustrator 24.2.1, SVG Export Plug-In . SVG Version: 6.00 Build 0)  -->
<svg version="1.1" id="Layer_1" xmlns="http://www.w3.org/2000/svg" xmlns:xlink="http://www.w3.org/1999/xlink" x="0px" y="0px"
	 viewBox="0 0 640 480" style="enable-background:new 0 0 640 480;" xml:space="preserve">
<style type="text/css">
	.st0{fill:#666666;stroke:#808080;stroke-width:8;stroke-miterlimit:10;}
	.st1{fill:#B3B3B3;stroke:#808080;stroke-width:8;stroke-miterlimit:10;}
</style>
<path class="st0" d="M158.74,173.37c8.57-46.64,49.43-82,98.55-82c49.37,0,90.4,35.7,98.68,82.67c2.44-0.28,4.94-0.42,7.46-0.42
	c35.71,0,64.64,28.94,64.64,64.64c0,35.71-28.94,64.64-64.64,64.64l-301,1.01c-21.2,0-38.38-17.18-38.38-38.38
	s17.18-38.38,38.38-38.38c1.73,0,3.42,0.11,5.09,0.34c-0.03-0.69-0.04-1.38-0.04-2.08c0-33.31,27.13-60.31,60.6-60.31
	C139.27,165.11,149.75,168.12,158.74,173.37z"/>
<path class="st1" d="M251.46,210.97c11.59-63.13,66.9-110.98,133.39-110.98c66.82,0,122.35,48.31,133.56,111.9
	c3.31-0.38,6.69-0.57,10.1-0.57c48.33,0,87.49,39.17,87.49,87.49c0,48.33-39.17,87.49-87.49,87.49l-407.39,1.37
	c-28.69,0-51.95-23.25-51.95-51.95s23.25-51.95,51.95-51.95c2.34,0,4.63,0.15,6.89,0.46c-0.04-0.93-0.05-1.87-0.05-2.82
	c0-45.09,36.72-81.63,82.02-81.63C225.11,199.79,239.29,203.86,251.46,210.97z"/>
</svg>
