<?xml version="1.0" encoding="utf-8"?>
<!-- Generator: Adobe Illustrator 24.2.1, SVG Export Plug-In . SVG Version: 6.00 Build 0)  -->
<svg version="1.1" id="Layer_1" xmlns="http://www.w3.org/2000/svg" xmlns:xlink="http://www.w3.org/1999/xlink" x="0px" y="0px"
	 viewBox="0 0 640 480" style="enable-background:new 0 0 640 480;" xml:space="preserve">
<style type="text/css">
	.st0{fill:#666666;stroke:#808080;stroke-width:8;stroke-miterlimit:10;}
	.st1{fill:#B3B3B3;stroke:#808080;stroke-width:8;stroke-miterlimit:10;}
	.st2{fill:none;stroke:#0071BC;stroke-width:8;stroke-miterlimit:10;stroke-dasharray:12;}
	.st3{fill:none;stroke:#0071BC;stroke-width:8;stroke-miterlimit:10;stroke-dasharray:24;}
	.st4{fill:none;stroke:#0071BC;stroke-width:8;stroke-miterlimit:10;stroke-dasharray:32;}
</style>
<path class="st0" d="M169.46,121.73c8.42-45.86,48.6-80.61,96.89-80.61c48.54,0,88.87,35.09,97.02,81.28
	c2.4-0.28,4.86-0.42,7.34-0.42c35.1,0,63.55,28.45,63.55,63.55c0,35.1-28.45,63.55-63.55,63.55l-295.91,0.99
	c-20.84,0-37.73-16.89-37.73-37.73s16.89-37.73,37.73-37.73c1.7,0,3.37,0.11,5,0.34c-0.03-0.68-0.04-1.36-0.04-2.05
	c0-32.75,26.67-59.29,59.58-59.29C150.33,113.61,160.63,116.57,169.46,121.73z"/>
<path class="st1" d="M260.61,158.7c11.4-62.07,65.77-109.1,131.13-109.1c65.69,0,120.29,47.5,131.31,110
	c3.25-0.38,6.57-0.56,9.93-0.56c47.51,0,86.01,38.5,86.01,86.01c0,47.51-38.51,86.01-86.01,86.01l-400.51,1.34
	c-28.21,0-51.07-22.86-51.07-51.07s22.86-51.07,51.07-51.07c2.3,0,4.56,0.15,6.77,0.46c-0.04-0.91-0.05-1.84-0.05-2.77
	c0-44.32,36.1-80.25,80.64-80.25C234.72,147.71,248.65,151.71,260.61,158.7z"/>
<line class="st2" x1="353.56" y1="308.31" x2="197.66" y2="464.21"/>
<line class="st3" x1="295.1" y1="294.87" x2="139.2" y2="450.77"/>
<line class="st4" x1="428.15" y1="306.96" x2="272.25" y2="462.86"/>
</svg>
