<?xml version="1.0" encoding="utf-8"?>
<!-- Generator: Adobe Illustrator 24.2.1, SVG Export Plug-In . SVG Version: 6.00 Build 0)  -->
<svg version="1.1" id="Layer_1" xmlns="http://www.w3.org/2000/svg" xmlns:xlink="http://www.w3.org/1999/xlink" x="0px" y="0px"
	 viewBox="0 0 640 480" style="enable-background:new 0 0 640 480;" xml:space="preserve">
<style type="text/css">
	.st0{fill:none;stroke:#F15A24;stroke-width:44;stroke-miterlimit:10;stroke-dasharray:20.2912,20.2912;}
	.st1{fill:#F7931E;}
	.st2{fill:#F15A24;}
	.st3{fill:#B3B3B3;stroke:#808080;stroke-width:8;stroke-miterlimit:10;}
	.st4{fill:none;stroke:#0071BC;stroke-width:8;stroke-miterlimit:10;stroke-dasharray:12;}
	.st5{fill:none;stroke:#0071BC;stroke-width:8;stroke-miterlimit:10;stroke-dasharray:24;}
	.st6{fill:none;stroke:#0071BC;stroke-width:8;stroke-miterlimit:10;stroke-dasharray:32;}
</style>
<g>
	<circle class="st0" cx="227.39" cy="172.83" r="142.09"/>
</g>
<g>
	<circle class="st1" cx="227.39" cy="172.83" r="115.11"/>
	<path class="st2" d="M227.39,63.22c29.28,0,56.8,11.4,77.51,32.1c20.7,20.7,32.1,48.23,32.1,77.51s-11.4,56.8-32.1,77.51
		c-20.7,20.7-48.23,32.1-77.51,32.1s-56.8-11.4-77.51-32.1c-20.7-20.7-32.1-48.23-32.1-77.51s11.4-56.8,32.1-77.51
		C170.59,74.62,198.11,63.22,227.39,63.22 M227.39,52.22c-66.61,0-120.61,54-120.61,120.61s54,120.61,120.61,120.61
		S348,239.44,348,172.83S294,52.22,227.39,52.22L227.39,52.22z"/>
</g>
<path class="st3" d="M262.02,206.22c9.68-52.7,55.85-92.65,111.36-92.65c55.79,0,102.15,40.33,111.5,93.41
	c2.76-0.32,5.58-0.48,8.43-0.48c40.34,0,73.04,32.7,73.04,73.04c0,40.34-32.7,73.04-73.04,73.04l-340.1,1.14
	c-23.96,0-43.37-19.41-43.37-43.37S129.25,267,153.21,267c1.95,0,3.87,0.13,5.75,0.39c-0.03-0.78-0.05-1.56-0.05-2.35
	c0-37.64,30.65-68.15,68.48-68.15C240.02,196.89,251.86,200.29,262.02,206.22z"/>
<line class="st4" x1="334.84" y1="338.61" x2="202.46" y2="471"/>
<line class="st5" x1="285.2" y1="327.2" x2="152.81" y2="459.59"/>
<line class="st6" x1="398.19" y1="337.47" x2="265.8" y2="469.86"/>
</svg>
