<?xml version="1.0" encoding="utf-8"?>
<!-- Generator: Adobe Illustrator 24.2.1, SVG Export Plug-In . SVG Version: 6.00 Build 0)  -->
<svg version="1.1" id="Layer_1" xmlns="http://www.w3.org/2000/svg" xmlns:xlink="http://www.w3.org/1999/xlink" x="0px" y="0px"
	 viewBox="0 0 640 480" style="enable-background:new 0 0 640 480;" xml:space="preserve">
<style type="text/css">
	.st0{fill:#666666;stroke:#808080;stroke-width:8;stroke-miterlimit:10;}
	.st1{fill:#B3B3B3;stroke:#808080;stroke-width:8;stroke-miterlimit:10;}
	.st2{fill:#FCEE21;stroke:#FCEE21;stroke-width:8;stroke-miterlimit:10;}
</style>
<path class="st0" d="M179.19,147.08c7.92-43.13,45.71-75.82,91.13-75.82c45.65,0,83.59,33.01,91.25,76.45
	c2.26-0.26,4.57-0.39,6.9-0.39c33.02,0,59.77,26.76,59.77,59.77c0,33.02-26.76,59.77-59.77,59.77L90.14,267.8
	c-19.6,0-35.49-15.89-35.49-35.49s15.89-35.49,35.49-35.49c1.6,0,3.17,0.1,4.71,0.32c-0.03-0.64-0.04-1.28-0.04-1.92
	c0-30.8,25.09-55.77,56.04-55.77C161.19,139.44,170.87,142.23,179.19,147.08z"/>
<path class="st1" d="M264.92,181.85c10.72-58.38,61.86-102.62,123.34-102.62c61.79,0,113.14,44.67,123.5,103.47
	c3.06-0.35,6.18-0.53,9.34-0.53c44.69,0,80.9,36.22,80.9,80.9c0,44.69-36.22,80.9-80.9,80.9l-376.7,1.26
	c-26.53,0-48.04-21.5-48.04-48.04s21.5-48.04,48.04-48.04c2.16,0,4.29,0.14,6.37,0.43c-0.04-0.86-0.05-1.73-0.05-2.6
	c0-41.69,33.95-75.48,75.84-75.48C240.56,171.51,253.67,175.28,264.92,181.85z"/>
<polygon class="st2" points="266,236 327,236 296,321 370,321 289,441 291,357 249,357 249,236 "/>
</svg>
