<?xml version="1.0" encoding="utf-8"?>
<!-- Generator: Adobe Illustrator 24.2.1, SVG Export Plug-In . SVG Version: 6.00 Build 0)  -->
<svg version="1.1" id="Layer_1" xmlns="http://www.w3.org/2000/svg" xmlns:xlink="http://www.w3.org/1999/xlink" x="0px" y="0px"
	 viewBox="0 0 640 480" style="enable-background:new 0 0 640 480;" xml:space="preserve">
<style type="text/css">
	.st0{fill:none;stroke:#0071BC;stroke-width:8;stroke-miterlimit:10;}
	.st1{fill:#0071BC;}
	.st2{fill:#B3B3B3;stroke:#808080;stroke-width:23;stroke-miterlimit:10;}
</style>
<path class="st0" d="M110.39,30.23"/>
<g>
	<path class="st1" d="M577.96,215.35c-20.94,3.97-42.01,6.82-63.15,9.18c-21.15,2.31-42.37,4.04-63.8,4.7
		c-5.38,0.09-10.72,0.34-16.15,0.2l-8.13-0.08l-8.25-0.4c-2.71-0.08-5.6-0.47-8.43-0.77c-1.41-0.16-2.86-0.3-4.25-0.49
		c-1.37-0.21-2.74-0.43-4.1-0.66c-5.43-0.91-10.76-2.06-16.05-3.27c-21.16-4.84-41.72-11.44-61.66-19.88
		c-9.96-4.23-19.75-8.92-29.27-14.23c-9.51-5.33-18.82-11.14-27.54-18.05c-4.35-3.46-8.54-7.22-12.41-11.43
		c-3.8-4.26-7.39-9-9.71-14.73c-1.13-2.86-1.95-5.96-2.11-9.18c-0.05-0.8-0.07-1.6-0.01-2.41l0.06-1.2l0.15-1.07l0.3-2.14l0.15-1.07
		l0.23-1.06c1.1-5.68,3.35-11.14,6.4-16c3.05-4.88,6.99-9.08,11.28-12.69c4.32-3.59,9.06-6.53,13.94-9.08
		c9.81-5.02,20.22-8.4,30.77-10.87c5.28-1.21,10.6-2.26,15.95-3.04c5.35-0.83,10.73-1.43,16.14-1.87c2.7-0.22,5.41-0.38,8.13-0.5
		l4.16-0.1c1.39-0.03,2.78,0.03,4.17,0.04c5.56,0.16,11.11,0.71,16.61,1.61c11,1.79,21.82,4.96,32.11,9.57
		c10.29,4.61,20.19,10.48,28.94,18.69c4.35,4.11,8.46,8.86,11.65,14.97c1.57,3.05,2.87,6.58,3.46,10.58l0.2,1.5
		c0.03,0.52,0.04,1.06,0.06,1.58l0.02,1.59c0,0.52-0.06,0.86-0.09,1.3c-0.17,1.67-0.27,3.35-0.56,5
		c-1.06,6.67-3.72,13.02-7.18,18.47c-3.47,5.48-7.68,10.16-12.15,14.28c-4.49,4.1-9.29,7.52-14.16,10.7
		c-2.46,1.5-4.92,3.06-7.43,4.39c-1.25,0.68-2.49,1.41-3.76,2.04l-3.8,1.9c-2.53,1.27-5.1,2.37-7.65,3.55
		c-2.57,1.06-5.14,2.2-7.73,3.19c-2.59,0.99-5.17,2.03-7.78,2.91l-3.91,1.37l-3.92,1.28c-20.93,6.78-42.21,11.21-63.53,14.51
		c-10.67,1.58-21.35,2.97-32.04,3.96c-2.67,0.27-5.35,0.5-8.02,0.73c-1.35,0.11-2.65,0.25-4.03,0.34l-4.14,0.25
		c-2.75,0.15-5.55,0.36-8.25,0.41l-8.12,0.16c-21.58,0.29-42.81-0.55-64.07-1.67c-21.24-1.16-42.42-2.7-63.56-4.72
		c-21.15-1.95-42.26-4.23-63.33-7.21l0.11-2.3c21.23-1.02,42.43-1.68,63.6-2.25l63.43-1.7c10.55-0.31,21.09-0.59,31.6-0.99
		c10.5-0.37,20.99-0.85,31.35-1.5l7.74-0.54c1.3-0.07,2.55-0.22,3.81-0.35l3.78-0.37l3.77-0.36c1.26-0.12,2.58-0.32,3.87-0.47
		c2.59-0.33,5.18-0.65,7.76-1.01c10.33-1.44,20.64-2.88,30.88-4.65c5.11-0.9,10.23-1.75,15.31-2.72c5.09-0.95,10.14-2.03,15.18-3.09
		c10.08-2.15,20.04-4.64,29.82-7.47c9.74-2.9,19.35-6.1,28.37-10.13l3.36-1.53c1.13-0.5,2.19-1.08,3.29-1.61
		c2.22-1.05,4.28-2.26,6.39-3.42c4.09-2.44,8.05-5.03,11.5-7.94c6.89-5.83,12.05-12.63,13.61-20.15c0.22-0.94,0.28-1.91,0.46-2.87
		c0.03-0.22,0.1-0.53,0.1-0.67c0-0.13,0-0.26,0.01-0.39l0.04-0.4c-0.02-0.15-0.04-0.31-0.05-0.46c-0.09-1.24-0.44-2.82-1.2-4.52
		c-1.51-3.4-4.05-7.07-7.17-10.44c-6.23-6.8-14.24-12.76-22.83-17.64c-8.64-4.87-17.97-8.74-27.68-11.33
		c-4.86-1.28-9.8-2.25-14.8-2.87c-1.25-0.13-2.5-0.31-3.76-0.4l-3.77-0.26c-2.57-0.1-5.16-0.16-7.74-0.16
		c-10.34,0.02-20.72,0.88-30.88,2.79c-5.08,0.96-10.1,2.17-15,3.74c-4.9,1.54-9.68,3.44-14.2,5.74c-9.04,4.54-17.21,11-22.05,19.43
		c-2.45,4.17-3.97,8.8-4.65,13.55l-0.14,0.89l-0.06,0.9l-0.12,1.8l-0.06,0.9l0.03,0.78c-0.01,0.52,0.05,1.04,0.13,1.55
		c0.27,2.06,0.93,4.12,1.96,6.09c2.03,3.95,5.23,7.58,8.85,10.83c1.83,1.62,3.76,3.17,5.77,4.63c2.03,1.45,4.11,2.85,6.25,4.18
		c8.58,5.32,17.86,9.77,27.36,13.76c4.76,1.98,9.54,3.91,14.4,5.7c4.83,1.85,9.72,3.54,14.61,5.26c4.9,1.69,9.82,3.31,14.76,4.91
		c4.95,1.56,9.89,3.13,14.86,4.62c9.93,2.99,19.91,5.83,29.91,8.36c5,1.26,10.02,2.37,14.99,3.42c1.24,0.26,2.48,0.5,3.72,0.73
		c1.22,0.21,2.41,0.35,3.62,0.53c2.42,0.33,4.77,0.76,7.35,0.92l7.59,0.71l7.74,0.46l3.87,0.23l3.91,0.13l7.82,0.32
		c20.91,0.65,42.02,0.72,63.16,0.9c21.14,0.18,42.33,0.25,63.59,0.84L577.96,215.35z"/>
</g>
<g>
	<path class="st1" d="M54.93,242.78c4.71-0.49,9.35-0.67,13.99-0.83c4.64-0.2,9.25-0.2,13.85-0.24c9.2-0.04,18.34,0.17,27.46,0.51
		c9.11,0.34,18.2,0.79,27.27,1.39c9.07,0.56,18.12,1.34,27.14,2.75c18.03,2.69,36.1,7.16,54.37,8.24c4.56,0.34,9.13,0.44,13.7,0.43
		c4.57,0.05,9.14-0.09,13.7-0.34c9.13-0.39,18.25-1.54,27.34-2.75c4.54-0.65,9.08-1.34,13.61-1.95l6.79-1.02
		c2.26-0.3,4.53-0.64,6.79-0.91c4.52-0.61,9.04-1.19,13.57-1.64l13.56-1.51c18.07-2.1,36.04-4.64,54.11-6.29
		c4.51-0.46,9.04-0.83,13.56-1.19c4.52-0.4,9.06-0.72,13.59-1.05c9.07-0.71,18.16-1.3,27.28-1.87l13.7-0.78l13.77-0.63
		c9.21-0.32,18.44-0.65,27.82-0.45l0.46,2.25c-8.59,3.78-17.35,6.95-26.18,9.84l-6.64,2.11l-6.67,1.97
		c-4.46,1.29-8.93,2.5-13.43,3.64c-8.98,2.3-18.03,4.31-27.12,6.08c-4.54,0.9-9.1,1.7-13.67,2.48c-4.57,0.74-9.15,1.42-13.73,2.04
		c-18.35,2.43-36.89,3.17-55.39,3.55c-4.63,0.06-9.25,0.17-13.88,0.19c-2.31,0.01-4.63-0.01-6.94-0.06
		c-2.31-0.03-4.63-0.09-6.94-0.18c-2.31-0.08-4.63-0.24-6.94-0.36l-6.94-0.47c-4.63-0.35-9.25-0.79-13.86-1.19
		c-4.61-0.34-9.23-0.89-13.83-1.21c-4.6-0.33-9.2-0.67-13.8-0.89c-9.19-0.38-18.37-0.67-27.57-0.44
		c-18.37,0.31-36.93,3.25-55.47,3.51c-4.63,0.08-9.25-0.04-13.87-0.27c-4.62-0.23-9.21-0.73-13.81-1.2
		c-4.59-0.5-9.17-1.11-13.75-1.76c-2.29-0.31-4.57-0.71-6.85-1.08c-2.28-0.36-4.56-0.76-6.84-1.18c-9.1-1.66-18.15-3.67-27.12-6.1
		c-8.96-2.47-17.86-5.23-26.58-8.87L54.93,242.78z"/>
</g>
<g>
	<path class="st1" d="M147.78,275.62c4.71-0.49,9.35-0.67,13.99-0.83c4.64-0.2,9.25-0.2,13.85-0.24c9.2-0.04,18.34,0.17,27.46,0.51
		c9.11,0.34,18.2,0.79,27.27,1.39c9.07,0.56,18.12,1.34,27.14,2.75c18.03,2.69,36.1,7.16,54.37,8.24c4.56,0.34,9.13,0.44,13.7,0.43
		c4.57,0.05,9.14-0.09,13.7-0.34c9.13-0.39,18.25-1.54,27.34-2.75c4.54-0.65,9.08-1.34,13.61-1.95l6.79-1.02
		c2.26-0.3,4.53-0.64,6.79-0.91c4.52-0.61,9.04-1.19,13.57-1.64l13.56-1.51c18.07-2.1,36.04-4.64,54.11-6.29
		c4.51-0.46,9.04-0.83,13.56-1.19c4.52-0.4,9.06-0.72,13.59-1.05c9.07-0.71,18.16-1.3,27.28-1.87l13.7-0.78l13.77-0.63
		c9.21-0.32,18.44-0.65,27.82-0.45l0.46,2.25c-8.59,3.78-17.35,6.95-26.18,9.84l-6.64,2.11l-6.67,1.97
		c-4.46,1.29-8.93,2.5-13.43,3.64c-8.98,2.3-18.03,4.31-27.12,6.08c-4.54,0.9-9.1,1.7-13.67,2.48c-4.57,0.74-9.15,1.42-13.73,2.04
		c-18.35,2.43-36.89,3.17-55.39,3.55c-4.63,0.06-9.25,0.17-13.88,0.19c-2.31,0.01-4.63-0.01-6.94-0.06
		c-2.31-0.03-4.63-0.09-6.94-0.18c-2.31-0.08-4.63-0.24-6.94-0.36l-6.94-0.47c-4.63-0.35-9.25-0.79-13.86-1.19
		c-4.61-0.34-9.23-0.89-13.83-1.21c-4.6-0.33-9.2-0.67-13.8-0.89c-9.19-0.38-18.37-0.67-27.57-0.44
		c-18.37,0.31-36.93,3.25-55.47,3.51c-4.63,0.08-9.25-0.04-13.87-0.27c-4.62-0.23-9.21-0.73-13.81-1.2
		c-4.59-0.5-9.17-1.11-13.75-1.76c-2.29-0.31-4.57-0.71-6.85-1.08c-2.28-0.36-4.56-0.76-6.84-1.18c-9.1-1.66-18.15-3.67-27.12-6.1
		c-8.96-2.47-17.86-5.23-26.58-8.87L147.78,275.62z"/>
</g>
<g>
	<path class="st1" d="M568.37,320.67c-29.44,1.13-58.85,1.79-88.24,2.41l-88.1,1.76c-14.66,0.36-29.32,0.67-43.92,1.21
		c-7.29,0.26-14.59,0.54-21.82,0.95c-7.23,0.4-14.48,0.87-21.35,1.64c-1.77,0.16-3.32,0.45-4.95,0.68
		c-1.63,0.25-3.33,0.68-4.99,1.06c-3.33,0.77-6.64,1.62-9.9,2.61c-6.54,1.94-12.96,4.24-19.33,6.71
		c-6.36,2.49-12.65,5.27-18.74,8.48c-6.08,3.21-11.95,6.95-17.09,11.42c-2.56,2.25-4.89,4.71-6.83,7.36
		c-1.89,2.65-3.4,5.55-3.87,8.34c-0.07,0.35-0.1,0.69-0.14,1.03l-0.03,0.5c-0.01,0.18,0.01,0.4,0.01,0.6
		c0.01,0.82,0.07,1.63,0.14,2.44c0.18,1.61,0.46,3.19,0.99,4.68c0.51,1.49,1.17,2.91,2.01,4.21c0.85,1.29,1.88,2.46,3.04,3.5
		c4.64,4.15,11.58,5.92,17.96,5.45c2.8-0.26,5.58-1.41,8.04-3.14c2.47-1.72,4.61-4.04,6.32-6.53c1.7-2.48,2.94-5.29,3.35-7.73
		c0.22-1.21,0.19-2.29,0-2.96c-0.21-1.16-0.55-2.37-1.04-3.45c-0.97-2.2-2.42-4.23-4.33-6.15c-1.89-1.93-4.21-3.71-6.76-5.37
		c-5.13-3.31-11.16-6.09-17.52-8.36c-6.36-2.29-13.06-4.09-19.87-5.67c-13.64-3.12-27.72-5.39-41.89-7.63
		c-3.54-0.58-7.1-1.09-10.66-1.63c-3.56-0.57-7.13-1.09-10.71-1.6c-3.56-0.42-7.1-1-10.67-1.44l-5.37-0.65
		c-1.79-0.24-3.58-0.47-5.38-0.66c-14.37-1.68-28.87-3.12-43.45-4.56c-14.58-1.42-29.25-2.84-44.03-4.57l-0.15-2.29
		c14.58-3.46,29.31-5.64,44.12-7.22c14.82-1.52,29.72-2.34,44.71-2.35c7.49-0.03,15.01,0.24,22.55,0.66
		c3.73,0.25,7.47,0.51,11.21,0.82c3.74,0.34,7.47,0.76,11.21,1.2c14.94,1.84,29.86,4.79,44.61,9.31c7.38,2.26,14.71,4.92,21.96,8.2
		c7.23,3.3,14.45,7.15,21.14,12.62c3.33,2.74,6.5,5.94,9.21,9.75c2.69,3.8,4.91,8.32,5.87,13.23c0.5,2.45,0.69,4.91,0.6,7.42
		c-0.11,3.01-0.84,5.59-1.79,7.86c-1.91,4.55-4.67,8.07-7.74,11.17c-3.09,3.07-6.63,5.59-10.58,7.45
		c-3.93,1.85-8.37,3.03-12.94,2.83c-4.18-0.21-8.18-1.03-12.06-2.44c-3.86-1.4-7.55-3.53-10.67-6.41
		c-3.11-2.88-5.52-6.57-6.96-10.51c-0.7-1.98-1.26-3.98-1.61-6.01c-0.16-1.01-0.3-2.03-0.38-3.04l-0.07-0.77l-0.04-0.88
		c0-0.58-0.01-1.16,0.04-1.72c0.13-2.28,0.67-4.4,1.29-6.43c0.64-2.02,1.46-3.94,2.38-5.77c1.81-3.68,4.01-7.05,6.37-10.26
		c4.73-6.43,10.29-12.11,16.31-17.22c6.03-5.11,12.63-9.52,19.63-13.15c6.98-3.67,14.42-6.43,22.01-8.5c3.81-1,7.65-1.87,11.52-2.56
		c1.96-0.33,3.85-0.61,5.87-0.88c2.01-0.25,4.09-0.56,5.99-0.7c7.75-0.71,15.19-1.01,22.65-1.18c7.45-0.2,14.86-0.25,22.26-0.29
		c14.79,0.02,29.54,0.2,44.28,0.59c29.47,0.72,58.89,2.02,88.29,3.69c14.7,0.84,29.39,1.79,44.08,2.86
		c14.69,1.06,29.36,2.28,44.03,3.7L568.37,320.67z"/>
</g>
<path class="st2" d="M467.66,282.59"/>
</svg>
